<svg xmlns="http://www.w3.org/2000/svg" width="32.561" height="18.401" viewBox="0 0 32.561 18.401">
  <path id="vk" d="M28.024,122.827a44.3,44.3,0,0,1,3.189,3.2,9.308,9.308,0,0,1,1.143,1.645c.439.85.041,1.785-.722,1.836l-4.744,0a3.665,3.665,0,0,1-3.02-1.226c-.657-.668-1.265-1.379-1.9-2.07a4.492,4.492,0,0,0-.854-.758.992.992,0,0,0-1.58.383,4.972,4.972,0,0,0-.5,2.21c-.051,1.115-.388,1.409-1.51,1.46a12.144,12.144,0,0,1-6.788-1.457,14.989,14.989,0,0,1-4.567-4.27,57.47,57.47,0,0,1-6.011-10.7c-.379-.843-.1-1.3.83-1.312,1.547-.03,3.095-.028,4.644,0a1.364,1.364,0,0,1,1.288.963,28.736,28.736,0,0,0,3.148,5.825,4.971,4.971,0,0,0,1.189,1.305.723.723,0,0,0,1.228-.36,4.038,4.038,0,0,0,.273-1.222A18.168,18.168,0,0,0,12.688,114a1.786,1.786,0,0,0-1.522-1.633c-.453-.086-.386-.254-.166-.513a1.706,1.706,0,0,1,1.455-.723h5.361c.844.166,1.031.545,1.147,1.393l0,5.947c-.009.328.164,1.3.756,1.52.474.155.786-.224,1.071-.524a18.437,18.437,0,0,0,3.018-4.633c.363-.732.676-1.492.978-2.252A1.148,1.148,0,0,1,26,111.749l5.16,0a2.724,2.724,0,0,1,.456.028c.869.148,1.108.521.839,1.369a12.86,12.86,0,0,1-2.051,3.552c-.86,1.189-1.781,2.337-2.634,3.533-.784,1.092-.722,1.643.252,2.591Z" transform="translate(0 -111.127)" fill="#d6ab30"/>
</svg>