<svg xmlns="http://www.w3.org/2000/svg" width="10.303" height="11.359" viewBox="0 0 10.303 11.359">
  <g id="calendar" transform="translate(1.668)">
    <path id="Path_8876" data-name="Path 8876" d="M264.473,119.313h-.333v-.333h.333Zm-.555,0h-.333v-.333h.333Zm0,0" transform="translate(-260.546 -116.869)" fill="#d7ab32"/>
    <path id="Path_8877" data-name="Path 8877" d="M8.3,220.092H-1.335v-7.248h-.333v7.581h10.3v-7.581H8.3Zm0,0" transform="translate(0 -209.066)" fill="#d7ab32"/>
    <path id="Path_8878" data-name="Path 8878" d="M108.162,2.444l.271-.271V.271L108.162,0h-.739l-.271.271v1.9l.271.271ZM107.485.408l.076-.076h.464l.076.076V2.036l-.076.076h-.464l-.076-.076Zm0,0" transform="translate(-106.889)" fill="#d7ab32"/>
    <path id="Path_8879" data-name="Path 8879" d="M398.885,2.444l.271-.271V.271L398.885,0h-.739l-.271.271v1.9l.271.271ZM398.208.408l.076-.076h.464l.076.076V2.036l-.076.076h-.464l-.076-.076Zm0,0" transform="translate(-392.452)" fill="#d7ab32"/>
    <path id="Path_8880" data-name="Path 8880" d="M6.981,59.488v.333H8.3V61.6H-1.335V59.821H-.014v-.333H-1.668v2.444h10.3V59.488Zm0,0" transform="translate(0 -58.432)" fill="#d7ab32"/>
    <path id="Path_8881" data-name="Path 8881" d="M194.93,59.488h3.325v.333H194.93Zm0,0" transform="translate(-193.108 -58.432)" fill="#d7ab32"/>
    <path id="Path_8882" data-name="Path 8882" d="M108.133,247.609l-2.764,2.764-1.154-1.154-1.337,1.337,2.491,2.491,4.1-4.1Zm-4.784,2.947.867-.867,1.154,1.154,2.764-2.764.867.867-3.63,3.63Zm0,0" transform="translate(-102.691 -243.215)" fill="#d7ab32"/>
  </g>
</svg>