<svg id="translate" xmlns="http://www.w3.org/2000/svg" width="18.314" height="18.63" viewBox="0 0 18.314 18.63">
  <path id="Path_8869" data-name="Path 8869" d="M317.683,301.465c-.05-.165-.254-.243-.463-.243a.448.448,0,0,0-.458.243l-1.064,3.467a.319.319,0,0,0-.011.055c0,.177.259.3.452.3.121,0,.215-.038.243-.143l.209-.733h1.262l.21.733c.027.1.121.143.242.143.193,0,.452-.127.452-.3a.245.245,0,0,0-.011-.055Zm-.943,2.381.479-1.692.48,1.692Zm0,0" transform="translate(-304.298 -290.074)" fill="#d8aa31"/>
  <path id="Path_8870" data-name="Path 8870" d="M16.341,7.6h-5.5V5.211l1.787-1.3a.551.551,0,0,0,0-.888L10.821,1.711A1.987,1.987,0,0,0,8.87,0h-6.9A1.993,1.993,0,0,0,0,2.007V9.023A1.993,1.993,0,0,0,1.973,11.03h5.5v2.389l-1.787,1.3a.551.551,0,0,0,0,.888l1.808,1.314A1.987,1.987,0,0,0,9.444,18.63h6.9a1.993,1.993,0,0,0,1.973-2.007V9.607A1.993,1.993,0,0,0,16.341,7.6ZM1.973,9.938a.909.909,0,0,1-.9-.916V2.007a.909.909,0,0,1,.9-.916h6.9a.909.909,0,0,1,.9.916.549.549,0,0,0,.225.444l1.4,1.017-1.4,1.017a.549.549,0,0,0-.225.444V7.6H9.444A1.993,1.993,0,0,0,7.471,9.607v.331Zm15.268,6.684a.909.909,0,0,1-.9.916h-6.9a.909.909,0,0,1-.9-.916.548.548,0,0,0-.225-.444l-1.4-1.017,1.4-1.017a.549.549,0,0,0,.225-.444V9.607a.909.909,0,0,1,.9-.916h6.9a.909.909,0,0,1,.9.916Zm0,0" fill="#d8aa31"/>
  <path id="Path_8871" data-name="Path 8871" d="M100.472,93.931a.29.29,0,0,0,0-.581H99.181v-.7a.29.29,0,1,0-.58,0v.7H97.31a.29.29,0,0,0,0,.581h.4a2.768,2.768,0,0,0,.726,1.6,2.185,2.185,0,0,1-1.126.311.29.29,0,0,0,0,.58,2.76,2.76,0,0,0,1.581-.5,2.761,2.761,0,0,0,1.581.5.29.29,0,0,0,0-.58,2.182,2.182,0,0,1-1.126-.311,2.768,2.768,0,0,0,.726-1.6Zm-1.581,1.233a2.192,2.192,0,0,1-.6-1.233h1.193A2.191,2.191,0,0,1,98.891,95.164Zm0,0" transform="translate(-93.511 -88.937)" fill="#d8aa31"/>
</svg>