<svg xmlns="http://www.w3.org/2000/svg" width="35.441" height="21" viewBox="0 0 35.441 21">
  <g id="tripadvisor-logotype" transform="translate(0 -20.082)">
    <g id="Group_8720" data-name="Group 8720" transform="translate(0 20.082)">
      <path id="Path_8924" data-name="Path 8924" d="M21.719,20.411a19,19,0,0,1,2.915.682,19.947,19.947,0,0,1,4.73,2.157.725.725,0,0,0,.362.1c1.742.007,3.483,0,5.223.006.14,0,.28.015.42.023,0,.034.005.049,0,.056-.081.125-.164.248-.245.373a10.683,10.683,0,0,0-1.394,2.9.334.334,0,0,0,.037.317,8.883,8.883,0,0,1-7.234,14.05,8.248,8.248,0,0,1-2.12-.272,8.891,8.891,0,0,1-4.353-2.569c-.158-.168-.307-.344-.476-.534-.634.945-1.258,1.875-1.9,2.829l-1.867-2.79a.474.474,0,0,0-.063.033.289.289,0,0,0-.037.039,8.8,8.8,0,0,1-5.5,3.115,8.593,8.593,0,0,1-3.663-.206,8.893,8.893,0,0,1-6.438-7.2,8.577,8.577,0,0,1,.159-3.509,8.923,8.923,0,0,1,1.381-3,.346.346,0,0,0,.04-.258A9.915,9.915,0,0,0,.454,24.082c-.134-.213-.3-.411-.444-.615V23.4A.754.754,0,0,0,.1,23.4q2.673,0,5.346,0a.452.452,0,0,0,.23-.074,19.2,19.2,0,0,1,3.988-1.935,21.67,21.67,0,0,1,3.1-.839,24.8,24.8,0,0,1,3.079-.4A26.119,26.119,0,0,1,21.719,20.411ZM19.485,32.18a7.073,7.073,0,1,0,6.922-7.045A7.083,7.083,0,0,0,19.485,32.18ZM8.873,25.108A7.065,7.065,0,1,0,15.954,32.2,7.073,7.073,0,0,0,8.873,25.108Zm.351-1.846a9.024,9.024,0,0,1,8.5,7.712A8.991,8.991,0,0,1,26.088,23.3a20.117,20.117,0,0,0-7.88-1.642A21.822,21.822,0,0,0,9.224,23.262Z" transform="translate(0 -20.082)" fill="#d6ab30"/>
      <path id="Path_8925" data-name="Path 8925" d="M66,41.31a4.381,4.381,0,1,1-4.392,4.377A4.367,4.367,0,0,1,66,41.31Zm2.856,4.377a2.864,2.864,0,0,0-5.728-.012,2.864,2.864,0,1,0,5.728.012Z" transform="translate(-39.456 -33.677)" fill="#d6ab30"/>
      <path id="Path_8926" data-name="Path 8926" d="M16.586,41.31a4.381,4.381,0,1,1-4.4,4.372A4.365,4.365,0,0,1,16.586,41.31Zm2.853,4.367a2.866,2.866,0,0,0-5.731.009,2.866,2.866,0,1,0,5.731-.009Z" transform="translate(-7.807 -33.677)" fill="#d6ab30"/>
      <path id="Path_8927" data-name="Path 8927" d="M71.236,49.443a1.452,1.452,0,1,1-1.455,1.466A1.453,1.453,0,0,1,71.236,49.443Z" transform="translate(-44.69 -38.886)" fill="#d6ab30"/>
      <path id="Path_8928" data-name="Path 8928" d="M21.786,49.407a1.465,1.465,0,1,1,0,2.931,1.465,1.465,0,1,1,0-2.931Z" transform="translate(-13.014 -38.863)" fill="#d6ab30"/>
    </g>
  </g>
</svg>