<svg xmlns="http://www.w3.org/2000/svg" width="21.666" height="21.666" viewBox="0 0 21.666 21.666">
  <path id="facebook" d="M18.749,0H2.922A2.92,2.92,0,0,0,0,2.92V18.747a2.92,2.92,0,0,0,2.92,2.92h7.806l.013-7.742H8.729a.475.475,0,0,1-.475-.473l-.01-2.5a.475.475,0,0,1,.475-.476h2.008V8.068a3.94,3.94,0,0,1,4.206-4.322h2.049a.475.475,0,0,1,.475.475v2.1a.475.475,0,0,1-.474.475H15.725c-1.358,0-1.621.645-1.621,1.592v2.088h2.983a.475.475,0,0,1,.471.53l-.3,2.5a.475.475,0,0,1-.471.419H14.117L14.1,21.666h4.645a2.92,2.92,0,0,0,2.92-2.92V2.92A2.92,2.92,0,0,0,18.749,0Z" transform="translate(-0.002)" fill="#d6ab30"/>
</svg>