<svg id="instagram" xmlns="http://www.w3.org/2000/svg" xmlns:xlink="http://www.w3.org/1999/xlink" width="22.322" height="22.322" viewBox="0 0 22.322 22.322">
  <defs>
    <linearGradient id="linear-gradient" x1="0.5" y1="0.008" x2="0.5" y2="0.998" gradientUnits="objectBoundingBox">
      <stop offset="0" stop-color="#d6ab30"/>
      <stop offset="0.3" stop-color="#d6ab30"/>
      <stop offset="0.6" stop-color="#d6ab30"/>
      <stop offset="1" stop-color="#d6ab30"/>
    </linearGradient>
  </defs>
  <path id="Path_8884" data-name="Path 8884" d="M15.672,0H6.65A6.657,6.657,0,0,0,0,6.65v9.022a6.657,6.657,0,0,0,6.65,6.65h9.022a6.657,6.657,0,0,0,6.65-6.65V6.65A6.657,6.657,0,0,0,15.672,0Zm4.4,15.672a4.4,4.4,0,0,1-4.4,4.4H6.65a4.4,4.4,0,0,1-4.4-4.4V6.65a4.4,4.4,0,0,1,4.4-4.4h9.022a4.4,4.4,0,0,1,4.4,4.4v9.022Z" transform="translate(0 0)" fill="url(#linear-gradient)"/>
  <path id="Path_8885" data-name="Path 8885" d="M138.773,133a5.773,5.773,0,1,0,5.773,5.773A5.78,5.78,0,0,0,138.773,133Zm0,9.3a3.528,3.528,0,1,1,3.528-3.528A3.528,3.528,0,0,1,138.773,142.3Z" transform="translate(-127.612 -127.612)" fill="url(#linear-gradient)"/>
  <circle id="Ellipse_22" data-name="Ellipse 22" cx="1.383" cy="1.383" r="1.383" transform="translate(15.562 4.048)" fill="url(#linear-gradient)"/>
</svg>