<svg xmlns="http://www.w3.org/2000/svg" xmlns:xlink="http://www.w3.org/1999/xlink" width="31" height="31" viewBox="0 0 31 31"><defs><path id="6e2ua" d="M1401.33 536.9a.47.47 0 0 1-.94 0v-1.42h-2.37v15.12h16.55c.26 0 .47.21.47.47v1.42h.47c.26 0 .47.21.47.47v7.57c0 .26-.2.47-.47.47h-27.41a.47.47 0 0 1-.48-.47V533.1c0-.26.22-.47.48-.47h27.41c.26 0 .47.21.47.47v1.9c0 .25-.2.47-.47.47h-.94v1.41a.47.47 0 0 1-.95 0v-1.41h-1.89v1.97a1.42 1.42 0 0 1 .73 2.08c1.31.38 2.1 1.13 2.1 2.1v.94c0 .26-.2.47-.47.47h-.94v4.25c0 .26-.21.48-.47.48h-11.35a.47.47 0 0 1-.47-.48v-4.25h-.95a.47.47 0 0 1-.47-.47v-.95c0-1.41 1.71-2.36 4.25-2.36a.47.47 0 0 0 0-.95.47.47 0 0 1-.47-.47v-2.36h-1.89zm9.45-1.42h-2.83v1.97a1.42 1.42 0 0 1 .8 1.94 8.45 8.45 0 0 1 2.34-.1.47.47 0 0 1 .17-.03.47.47 0 0 0 0-.95.47.47 0 0 1-.48-.47zm-3.78 0h-2.83v1.97a1.42 1.42 0 0 1 .83 1.9l.36.06a8.35 8.35 0 0 1 2.12-.15c.26 0 .47-.21.47-.47a.47.47 0 0 0-.47-.48.47.47 0 0 1-.48-.47zm-18.43-1.9v26.47h8.5v-7.09-19.37zm26.47 19.86h-17.02v6.61h17.02zm0-19.85h-17.02v.94h17.02zm-19.38 13.23c0 .26-.21.47-.47.47h-.95v.95a.47.47 0 0 1-.94 0v-1.42c0-.26.2-.47.47-.47h1.42c.26 0 .47.2.47.47zm12.76 9.45c0 .26-.21.48-.47.48h-.95v.47a.47.47 0 1 1-.94 0v-.47h-.95a.47.47 0 0 1 0-.95h2.84c.26 0 .47.21.47.47zm-4.73-16.07c-2.14 0-3.3.73-3.3 1.42v.47h.94c.26 0 .47.22.47.48v4.25h3.79v-4.25c0-.26.2-.48.47-.48h.94v-.47a.65.65 0 0 0-.03-.21c-.16-.45-.8-.85-1.72-1.05l-.05-.02a7.44 7.44 0 0 0-1.5-.14zm3.53 0c.47.39.73.87.73 1.42v.95c0 .26-.21.47-.47.47h-.95v3.78h2.36v-4.25c0-.26.22-.48.48-.48h.94v-.47a.65.65 0 0 0-.03-.2c-.15-.45-.8-.86-1.72-1.06l-.06-.02a7.2 7.2 0 0 0-1.28-.13zm6.4 1.42c0-.66-1.08-1.37-3.1-1.41.48.38.74.86.74 1.41v.95c0 .26-.21.47-.48.47h-.94v3.78h2.36v-4.25c0-.26.21-.48.48-.48h.94zm.47 9.93h-16.07v.94h16.07zm0 3.3v3.79c0 .26-.2.47-.47.47h-14.18a.47.47 0 0 1-.47-.47v-3.78c0-.27.21-.48.47-.48h14.18c.26 0 .47.21.47.48zm-.94.48h-13.24v2.83h13.24z"/></defs><g><g transform="translate(-1386 -531)"><use fill="#922d20" xlink:href="#6e2ua"/></g></g></svg>