<svg xmlns="http://www.w3.org/2000/svg" xmlns:xlink="http://www.w3.org/1999/xlink" width="29" height="30" viewBox="0 0 29 30"><defs><path id="i47ra" d="M1388.93 607.07v-28.14h27.14v28.14zm.86-18.78a1.33 1.33 0 0 0 1.55.96l2.69-.52 2.07-.45a1.3 1.3 0 0 0 1.07-1.44l-.25-1.94c-.04-.24.52-.5 1.03-.58 2.99-.48 6.03-.5 9.02-.02.82.14 1 .27 1.04.32.08.2.1.43.04.64l-.18 1.28c-.1.42-.03.86.2 1.22.32.34.75.55 1.22.6.3.05.55.11.79.17.25.06.5.13.83.19l2.4.46c.43.13.88.1 1.28-.07.42-.27.7-.72.74-1.22l.01-.07.17-.6c.18-.5.27-1 .28-1.53a3.56 3.56 0 0 0-1.17-2.37c-3.07-3.01-8.39-3.36-12.12-3.36-8.5 0-11.75 2.45-12.97 4.5a2.45 2.45 0 0 0-.25 1.89zm.35-2.17c-.12-.4-.06-.84.15-1.2 1.1-1.86 4.12-4.07 12.21-4.07 3.58 0 8.66.32 11.5 3.1.51.46.84 1.09.9 1.77-.01.42-.1.84-.24 1.23-.07.23-.13.45-.18.68l-.02.06c-.07.33-.13.55-.29.63-.22.07-.46.06-.68 0l-2.4-.47-.8-.17-.83-.2c-.22-.03-.57-.1-.69-.25a.87.87 0 0 1-.02-.56l.18-1.28c.1-.44.04-.9-.19-1.28-.29-.4-.95-.57-1.62-.68a29.6 29.6 0 0 0-9.3.02c-.97.14-1.9.69-1.78 1.57l.25 1.94a.43.43 0 0 1-.37.45l-2.07.45-2.67.52a.45.45 0 0 1-.54-.31l-.5-1.95zm25.68 14.53c0-.15-.03-.3-.08-.45l-.02-.03c-.04-.1-.1-.21-.16-.31l-5.64-7.65a1.78 1.78 0 0 0-1.43-.72h-1.16l-.39-3.14a.89.89 0 0 0-.89-.85h-1.33c-.49 0-.88.4-.88.89v3.54a.44.44 0 0 0 .88 0v-3.54h1.33v.05l.45 3.55c.03.22.22.39.44.39h1.55a.9.9 0 0 1 .71.36l5.3 7.17h-3.56a.44.44 0 1 0 0 .9h3.99v3.54c0 .73-.6 1.33-1.33 1.33h-22.19c-.73 0-1.33-.6-1.33-1.33v-3.55h18.64a.44.44 0 1 0 0-.89h-18.2l5.29-7.17a.89.89 0 0 1 .71-.36h1.55c.22 0 .41-.17.44-.4l.44-3.54v-.05h1.34v3.54c0 .25.2.45.44.45h1.77a.44.44 0 1 0 0-.9h-1.33v-3.1c0-.48-.4-.88-.88-.88h-1.33a.89.89 0 0 0-.9.85l-.38 3.14h-1.16c-.56 0-1.09.27-1.42.72l-5.65 7.65a1.32 1.32 0 0 0-.18.34c-.05.15-.07.3-.08.45v3.7c0 1.22 1 2.21 2.22 2.22h22.19c1.22 0 2.21-1 2.22-2.22v-3.7zm-17.05-5.18c.22-.27.5-.5.81-.66.41-.22.85-.38 1.3-.48a7.47 7.47 0 0 1 3.25 0 .44.44 0 1 0 .2-.86 8.37 8.37 0 0 0-3.65 0c-.53.11-1.05.3-1.53.56-.42.22-.79.53-1.09.9a1.9 1.9 0 0 0 0 2.44c.3.36.67.67 1.1.89.47.26.99.45 1.52.56 1.2.28 2.45.28 3.65 0 .53-.11 1.05-.3 1.53-.56.42-.22.79-.53 1.09-.9a1.9 1.9 0 0 0 0-2.43.44.44 0 1 0-.7.54c.33.38.33.97 0 1.35-.23.28-.5.5-.82.66-.41.22-.85.38-1.3.48a7.47 7.47 0 0 1-3.25 0c-.45-.1-.89-.26-1.3-.48a2.6 2.6 0 0 1-.81-.66 1.03 1.03 0 0 1 0-1.35z"/><path id="i47rb" d="M1389.28 586.35a2.45 2.45 0 0 1 .25-1.89c1.22-2.05 4.47-4.5 12.97-4.5 3.73 0 9.05.35 12.12 3.36.68.61 1.1 1.46 1.17 2.37 0 .52-.1 1.03-.28 1.52l-.17.61-.01.07c-.05.5-.32.95-.74 1.22-.4.17-.85.2-1.27.07l-2.4-.46c-.34-.06-.59-.13-.84-.19-.24-.06-.48-.12-.8-.18-.46-.04-.9-.25-1.21-.59-.23-.36-.3-.8-.2-1.22l.18-1.28a.98.98 0 0 0-.04-.64c-.04-.05-.22-.18-1.04-.32a28.71 28.71 0 0 0-9.02.02c-.51.08-1.07.34-1.03.58l.25 1.94a1.3 1.3 0 0 1-1.07 1.44l-2.07.45-2.69.52-.26.02c-.6 0-1.14-.4-1.3-.98zm.86-.23l.5 1.95c.07.22.3.36.54.3l2.67-.5 2.07-.46a.43.43 0 0 0 .37-.45l-.25-1.94c-.12-.88.81-1.43 1.78-1.57 3.08-.5 6.22-.5 9.3-.02.67.11 1.33.27 1.62.68.23.39.3.84.19 1.28l-.18 1.28a.87.87 0 0 0 .02.56c.12.15.47.22.69.26.33.06.58.12.83.19l.8.17 2.4.46c.22.07.46.08.68.01.16-.08.22-.3.29-.63l.02-.06c.05-.23.11-.45.18-.68.15-.4.23-.8.24-1.23a2.69 2.69 0 0 0-.9-1.77c-2.84-2.78-7.92-3.1-11.5-3.1-8.09 0-11.1 2.2-12.2 4.07-.22.36-.28.8-.16 1.2zm25.68 14.53v3.7c0 1.22-1 2.22-2.22 2.22h-22.19c-1.22 0-2.21-1-2.22-2.22v-3.7a1.35 1.35 0 0 1 .26-.79l5.65-7.65c.33-.45.86-.72 1.42-.72h1.16l.39-3.14c.02-.47.4-.85.89-.85h1.33c.49 0 .88.4.88.89v3.1h1.33a.44.44 0 1 1 0 .89h-1.77a.44.44 0 0 1-.44-.45v-3.54h-1.33v.05l-.45 3.55a.44.44 0 0 1-.44.39h-1.55a.89.89 0 0 0-.71.36l-5.3 7.17h18.2a.44.44 0 0 1 0 .9h-18.63v3.54c0 .73.6 1.33 1.33 1.33h22.19c.73 0 1.33-.6 1.33-1.33v-3.55h-4a.44.44 0 1 1 0-.89h3.56l-5.29-7.17a.9.9 0 0 0-.71-.36h-1.55a.44.44 0 0 1-.44-.4l-.44-3.54v-.05h-1.34v3.54a.44.44 0 0 1-.88 0v-3.54c0-.5.4-.9.88-.9h1.33c.48 0 .87.39.9.86l.38 3.14h1.16c.56 0 1.1.27 1.43.72l5.64 7.65c.07.1.12.2.16.31l.02.03c.05.15.08.3.08.45zm-17.05-5.18c-.34.38-.34.97 0 1.35.22.28.5.5.81.66.41.22.85.38 1.3.48 1.07.24 2.18.24 3.25 0 .45-.1.89-.26 1.3-.48.31-.16.59-.38.81-.66.34-.38.34-.97 0-1.35a.44.44 0 1 1 .7-.54c.6.7.6 1.73 0 2.44-.3.36-.66.67-1.08.89-.48.26-1 .45-1.53.56-1.2.28-2.45.28-3.65 0a5.98 5.98 0 0 1-1.53-.56c-.42-.22-.79-.53-1.09-.9a1.9 1.9 0 0 1 0-2.43c.3-.37.67-.68 1.1-.9.47-.25.99-.45 1.52-.56a8.37 8.37 0 0 1 3.65 0 .44.44 0 1 1-.2.86 7.47 7.47 0 0 0-3.25 0c-.45.1-.89.26-1.3.48-.31.16-.59.39-.81.66z"/><clipPath id="i47rc"><use fill="#fff" xlink:href="#i47ra"/></clipPath></defs><g><g transform="translate(-1388 -578)"><use fill="#922d20" xlink:href="#i47rb"/><use fill="#fff" fill-opacity="0" stroke="#922d20" stroke-miterlimit="50" stroke-width=".14" clip-path="url(&quot;#i47rc&quot;)" xlink:href="#i47rb"/></g></g></svg>