<svg xmlns="http://www.w3.org/2000/svg" xmlns:xlink="http://www.w3.org/1999/xlink" width="30" height="28" viewBox="0 0 30 28"><defs><path id="u7mma" d="M1398.52 627.51a.53.53 0 0 1-.9.37.53.53 0 0 1 0-.74.53.53 0 0 1 .74 0c.1.1.16.23.16.37zm17.47 0v18.04c0 .29-.24.52-.53.52h-9.07v1.79h3.06c.3 0 .53.23.53.52v1.57h1.1a.53.53 0 1 1 0 1.05H1392a.53.53 0 0 1-.53-.52c0-.3.24-.53.53-.53h3v-1.57c0-.29.24-.52.53-.52h3.06v-1.79h-9.08a.53.53 0 0 1-.52-.52v-18.04c0-.29.23-.52.52-.52h6.18c.29 0 .52.23.52.52 0 .3-.23.53-.52.53h-5.65v16.99h24.9V633.8l-8.88 8.82a.53.53 0 0 1-.75 0 .52.52 0 0 1 0-.74l9.62-9.56v-4.3h-14.7a.53.53 0 0 1-.52-.52c0-.29.24-.52.53-.52h15.22c.3 0 .53.23.53.52zm-16.35 20.35h5.7v-1.79h-5.7zm-3.59 1.05v1.04h12.87v-1.04zm2.3-16.57l-4.68 4.64a.53.53 0 0 1-.74-.74l4.66-4.64c.21-.2.54-.2.75 0 .2.2.2.53 0 .74zm-6.01 5.75a.52.52 0 0 1-.53.52.53.53 0 0 1-.37-.9.53.53 0 0 1 .74.01c.1.1.16.23.16.37zm21.16 12.39a.53.53 0 0 1-1.05 0 .52.52 0 0 1 .52-.53c.14 0 .28.06.38.16.1.1.15.23.15.37zm-11.55-15.89c0 .29-.24.52-.53.52h-.95V639c0 .29-.24.52-.53.52a.53.53 0 0 1-.53-.52v-3.89h-.95a.53.53 0 0 1-.52-.52c0-.29.23-.52.52-.52h2.96c.29 0 .53.23.53.52zm5.06.17l-1.47 4.4a.53.53 0 0 1-1 0l-1.48-4.4a.53.53 0 0 1 1-.33l.98 2.9.97-2.9a.53.53 0 0 1 1 .33z"/></defs><g><g transform="translate(-1387 -625)"><use fill="#830e00" xlink:href="#u7mma"/></g></g></svg>