<svg xmlns="http://www.w3.org/2000/svg" xmlns:xlink="http://www.w3.org/1999/xlink" width="32" height="30" viewBox="0 0 32 30"><defs><path id="bo43a" d="M1387.98 698.02v-28.04h29.04v28.04zm28.47-11.5c0-.81-.61-1.43-1.42-1.43h-.47v-9.96c0-2.37-1.9-4.27-4.27-4.27-2.1 0-3.6 1.56-3.78 3.84a2.34 2.34 0 0 0-1.9 2.33c0 .28.18.47.46.47h3.8c.28 0 .47-.19.47-.47 0-1.16-.8-2.1-1.87-2.32.14-1.51 1.04-2.9 2.82-2.9a3.3 3.3 0 0 1 3.32 3.32v9.96h-14.27a2.34 2.34 0 0 0-2.33-1.9 2.34 2.34 0 0 0-3.98.33c-.38-.18-.8-.33-1.23-.33-1.17 0-2.11.8-2.33 1.9h-.04c-.8 0-1.43.62-1.43 1.42 0 .81.62 1.43 1.43 1.43h.57l1.28 5.07a3.35 3.35 0 0 0 3.22 2.52h.38l-.62 1.23c-.14.24-.04.52.2.62.04.04.14.04.18.04a.5.5 0 0 0 .43-.23l.83-1.66h13.16l.8 1.6c.1.2.24.3.43.3.1 0 .14 0 .19-.1.19-.1.29-.38.19-.62l-.6-1.19a3.36 3.36 0 0 0 3.11-2.46l1.3-5.12h.55c.8 0 1.42-.62 1.42-1.43zm-8.1-9.97h-2.7c.18-.56.75-.94 1.37-.94.62 0 1.14.38 1.33.94zm-17.88 8.54c.19-.57.71-.95 1.33-.95.42 0 .8.2 1.14.53.1.14.28.18.47.14.19-.05.28-.2.33-.38.14-.71.71-1.24 1.42-1.24.53 0 1 .24 1.24.72.1.19.33.28.52.23h.14c.62 0 1.14.38 1.33.95zm21.86 7.69a2.43 2.43 0 0 1-2.32 1.8h-15.46c-1.1 0-2.04-.76-2.33-1.8l-1.23-4.84h22.48zm2.7-5.8h-25.6c-.29 0-.48-.18-.48-.47 0-.28.2-.47.48-.47h25.6c.29 0 .48.19.48.47 0 .29-.2.48-.48.48zm-9.96-7.34c.29 0 .48-.2.48-.48v-.23c0-.29-.19-.48-.48-.48-.28 0-.47.2-.47.48v.23c0 .29.2.48.47.48zm0 2.18c.29 0 .48-.24.48-.48v-.52c0-.28-.19-.47-.48-.47-.28 0-.47.19-.47.47v.52c0 .29.2.48.47.48zm0 1.85c.29 0 .48-.2.48-.48v-.23c0-.29-.19-.48-.48-.48-.28 0-.47.2-.47.48v.23c0 .29.2.48.47.48zm1.9-4.03c.29 0 .48-.2.48-.48v-.23c0-.29-.2-.48-.48-.48-.28 0-.47.2-.47.48v.23c0 .29.19.48.47.48zm-.47 1.7c0 .29.19.48.47.48.29 0 .48-.24.48-.48v-.52c0-.28-.2-.47-.48-.47-.28 0-.47.19-.47.47zm0 1.85c0 .29.19.48.47.48.29 0 .48-.2.48-.48v-.23c0-.29-.2-.48-.48-.48-.28 0-.47.2-.47.48zm2.37-3.55c.28 0 .47-.2.47-.48v-.23c0-.29-.19-.48-.47-.48-.29 0-.48.2-.48.48v.23c0 .29.2.48.48.48zm0 2.18c.28 0 .47-.24.47-.48v-.52c0-.28-.19-.47-.47-.47-.29 0-.48.19-.48.47v.52c0 .29.2.48.48.48zm-.48 1.37c0 .29.2.48.48.48.28 0 .47-.2.47-.48v-.23c0-.29-.19-.48-.47-.48-.29 0-.48.2-.48.48z"/><path id="bo43b" d="M1416.45 686.51c0 .81-.61 1.43-1.42 1.43h-.56l-1.29 5.12a3.36 3.36 0 0 1-3.1 2.46l.59 1.2c.1.23 0 .51-.19.6-.05.1-.1.1-.19.1-.19 0-.33-.1-.43-.28l-.8-1.61h-13.16l-.83 1.66a.5.5 0 0 1-.43.23c-.04 0-.14 0-.19-.04-.23-.1-.33-.38-.19-.62l.62-1.23h-.38a3.35 3.35 0 0 1-3.22-2.52l-1.28-5.07h-.57a1.4 1.4 0 0 1-1.43-1.43c0-.8.62-1.42 1.43-1.42h.04a2.34 2.34 0 0 1 2.33-1.9c.42 0 .85.15 1.23.34a2.34 2.34 0 0 1 3.98-.34c1.17 0 2.11.8 2.33 1.9h14.27v-9.96a3.3 3.3 0 0 0-3.32-3.32c-1.78 0-2.68 1.39-2.82 2.9a2.34 2.34 0 0 1 1.87 2.32c0 .28-.19.47-.47.47h-3.8c-.28 0-.47-.19-.47-.47 0-1.17.81-2.12 1.91-2.33.17-2.28 1.68-3.84 3.78-3.84 2.37 0 4.27 1.9 4.27 4.27v9.96h.47c.8 0 1.42.62 1.42 1.42zm-9.43-10.9c-.62 0-1.19.38-1.38.94h2.7a1.38 1.38 0 0 0-1.32-.94zm-16.55 9.48h7.92a1.38 1.38 0 0 0-1.33-.95h-.14a.48.48 0 0 1-.52-.23 1.32 1.32 0 0 0-1.24-.72c-.7 0-1.28.53-1.42 1.24-.05.19-.14.33-.33.38-.19.04-.38 0-.47-.14a1.6 1.6 0 0 0-1.14-.53c-.62 0-1.14.38-1.33.95zm23 2.85h-22.48l1.23 4.84a2.43 2.43 0 0 0 2.33 1.8H1410c1.09 0 2.04-.76 2.32-1.8zm2.04-1.43c0-.28-.2-.47-.48-.47h-25.6c-.29 0-.48.19-.48.47 0 .29.2.48.48.48h25.6c.29 0 .48-.2.48-.48zm-10.9-7.35v-.23c0-.29.18-.48.46-.48.29 0 .48.2.48.48v.23c0 .29-.19.48-.48.48-.28 0-.47-.2-.47-.48zm0 2.18v-.52c0-.28.18-.47.46-.47.29 0 .48.19.48.47v.52c0 .24-.19.48-.48.48-.28 0-.47-.2-.47-.48zm0 1.85v-.23c0-.29.18-.48.46-.48.29 0 .48.2.48.48v.23c0 .29-.19.48-.48.48-.28 0-.47-.2-.47-.48zm1.89-4.03v-.23c0-.29.19-.48.47-.48.29 0 .48.2.48.48v.23c0 .29-.2.48-.48.48-.28 0-.47-.2-.47-.48zm0 1.66c0-.28.19-.47.47-.47.29 0 .48.19.48.47v.52c0 .24-.2.48-.48.48-.28 0-.47-.2-.47-.48zm0 2.14c0-.29.19-.48.47-.48.29 0 .48.2.48.48v.23c0 .29-.2.48-.48.48-.28 0-.47-.2-.47-.48zm1.9-3.8v-.23c0-.29.18-.48.47-.48.28 0 .47.2.47.48v.23c0 .29-.19.48-.47.48-.29 0-.48-.2-.48-.48zm0 2.18v-.52c0-.28.18-.47.47-.47.28 0 .47.19.47.47v.52c0 .24-.19.48-.47.48-.29 0-.48-.2-.48-.48zm0 1.62c0-.29.18-.48.47-.48.28 0 .47.2.47.48v.23c0 .29-.19.48-.47.48-.29 0-.48-.2-.48-.48z"/><clipPath id="bo43c"><use fill="#fff" xlink:href="#bo43a"/></clipPath></defs><g><g transform="translate(-1386 -669)"><use fill="#922d20" xlink:href="#bo43b"/><use fill="#fff" fill-opacity="0" stroke="#922d20" stroke-miterlimit="50" stroke-width=".04" clip-path="url(&quot;#bo43c&quot;)" xlink:href="#bo43b"/></g></g></svg>