<svg xmlns="http://www.w3.org/2000/svg" xmlns:xlink="http://www.w3.org/1999/xlink" width="29" height="34" viewBox="0 0 29 34"><defs><path id="zju4a" d="M1415.23 827.75c0 .35-.29.64-.64.64h-3.78l.59 6.98c.02.3-.18.59-.48.67-.2.05-4.9 1.3-7.83 1.3-2.93 0-7.64-1.25-7.84-1.3a.64.64 0 0 1-.47-.67l.58-6.98h-4.95a.64.64 0 0 1-.64-.64c0-3.5 1.4-11.66 2.23-16.2a3.19 3.19 0 0 1 2.69-2.58l4.3-.98a7.73 7.73 0 0 1 4.1-1.33c2.04 0 3.7 1.05 4.12 1.34l3.2.99a3.14 3.14 0 0 1 2.59 2.56c.67 3.65 2.23 12.55 2.23 16.2zm-6.39-11.47a.64.64 0 1 1 1.28-.07l.6 10.9h3.22c-.16-3.87-1.57-11.91-2.2-15.33-.14-.81-.8-1.43-1.61-1.55l-2.8-.86-3.63 10.9-.01.03-1.06 3.16c.17.08.32.19.46.3a1.9 1.9 0 0 1 3.08.8h3.13zm-2.56 10.83h3.16l-.07-1.28h-3.09zm-1.91 2.56a1.9 1.9 0 0 1-.64-.11v.75c0 .83-.54 1.54-1.28 1.8v3.93l.64.02c2.22 0 5.68-.8 6.99-1.13l-.55-6.54h-3.36a1.92 1.92 0 0 1-1.8 1.28zm-4.48.64v-1.92h-3.24l-.55 6.54c.97.24 3.12.74 5.07.99v-3.8a1.92 1.92 0 0 1-1.28-1.81zm1.44-6.97l1.09-3.26-3.59-10.75-3.9.9c-.88.12-1.52.74-1.67 1.55-.63 3.42-2.04 11.47-2.2 15.33h4.4l.6-10.9c.02-.35.3-.62.67-.6.35.02.63.32.6.67l-.45 8.28h3.12c.21-.6.71-1.06 1.33-1.22zm-4.6 3.77h3.16v-1.28h-3.09zm6.36-19.17c-1.33 0-2.5.57-3.07.9l3.07 9.22 3.07-9.21a6.34 6.34 0 0 0-3.07-.9zm-.64 22.37v-5.12a.64.64 0 0 0-1.28 0v5.12a.64.64 0 0 0 1.28 0zm1.92-5.75a.64.64 0 0 0-.64.63v2.56a.64.64 0 0 0 1.28 0v-2.56a.64.64 0 0 0-.64-.63z"/></defs><g><g transform="translate(-1388 -805)"><use fill="#922d20" xlink:href="#zju4a"/></g></g></svg>