<svg xmlns="http://www.w3.org/2000/svg" xmlns:xlink="http://www.w3.org/1999/xlink" width="25" height="31" viewBox="0 0 25 31"><defs><path id="hklca" d="M1115 638c0 7.72-4.94 14-11 14-6.07 0-11-6.28-11-14s4.93-14 11-14c6.06 0 11 6.28 11 14zm-.92 0c0-7.2-4.52-13.07-10.08-13.07-5.56 0-10.08 5.86-10.08 13.07 0 7.2 4.52 13.07 10.08 13.07 5.56 0 10.08-5.87 10.08-13.07zm-.91 0c0 6.69-4.12 12.13-9.17 12.13s-9.17-5.44-9.17-12.13 4.12-12.13 9.17-12.13 9.17 5.44 9.17 12.13zm-.92 0c0-6.18-3.7-11.2-8.25-11.2s-8.25 5.02-8.25 11.2 3.7 11.2 8.25 11.2 8.25-5.02 8.25-11.2zm-5.18-7.33c.18.18.18.48 0 .66l-8.25 8.4a.45.45 0 0 1-.64 0 .47.47 0 0 1 0-.66l8.25-8.4a.45.45 0 0 1 .64 0zm-8.44 5.8a.47.47 0 0 1 0-.67l5.05-5.13a.45.45 0 0 1 .64 0c.18.18.18.48 0 .66l-5.04 5.13a.45.45 0 0 1-.65 0z"/></defs><g><g transform="translate(-1091 -622)"><use fill="#922d20" xlink:href="#hklca"/></g></g></svg>