<svg xmlns="http://www.w3.org/2000/svg" xmlns:xlink="http://www.w3.org/1999/xlink" width="30" height="32" viewBox="0 0 30 32"><defs><path id="tuwma" d="M1114.6 818.6c.46 6.39.6 12.95.63 14.6.59.2 1.02.75 1.02 1.4v.51c0 .82-.67 1.48-1.49 1.48h-19.17c-.81 0-1.48-.66-1.48-1.48v-.5c0-.66.43-1.21 1.02-1.4.01-.86.06-3.03.16-5.8l-.01-.02-3.19-2.83a4.51 4.51 0 0 1-1.51-3.37v-7.77a2.5 2.5 0 0 1 2.5-2.5h3.47c.1-.56.53-1.02 1.1-1.17.32-.08.65-.16 1-.23v-.27c0-.73.53-1.35 1.26-1.46a34.4 34.4 0 0 1 5.27-.4c1.84 0 3.62.14 5.27.4.73.1 1.26.73 1.26 1.46v.27l1 .23c.5.13.89.5 1.05.97 2.41.42 3.18.74 3.2.75.22.1.33.32.28.54-.02.11-.63 2.73-2.64 6.6zm1.61-6.38c-.39-.11-1.1-.3-2.29-.5.21 1.55.39 3.27.54 5.04a30.58 30.58 0 0 0 1.75-4.54zm-16.61-2.87c1.7-.29 3.62-.44 5.58-.44 1.95 0 3.87.15 5.58.44v-.1c0-.26-.2-.49-.46-.53-1.6-.25-3.33-.38-5.12-.38-1.8 0-3.52.13-5.13.38a.54.54 0 0 0-.45.53zm-2.13 1.77c-1.08 7.4-1.35 19.46-1.4 22h18.21c-.04-2.54-.3-14.6-1.4-22a.54.54 0 0 0-.4-.45 30.47 30.47 0 0 0-7.3-.81c-2.67 0-5.26.29-7.3.81a.54.54 0 0 0-.4.45zm-1.3 2.77h-2.63v7.43c0 .3.13.58.35.77l1.57 1.4c.16-3.13.39-6.56.71-9.6zm-.83 12.29l.06-1.48-2.14-1.9a1.99 1.99 0 0 1-.66-1.48v-7.9c0-.26.21-.47.47-.47h3.2l.14-1.07h-3.34c-.85 0-1.54.69-1.54 1.54v7.77c0 1.02.43 1.99 1.2 2.67zm19.96 8.43c0-.3-.24-.54-.54-.54h-19.17c-.3 0-.53.24-.53.54v.5c0 .3.24.54.53.54h19.17c.3 0 .54-.24.54-.54zm-12.1-5.55v-14.13a1.99 1.99 0 0 1 3.96 0v14.13a1.99 1.99 0 0 1-3.97 0zm.94 0a1.04 1.04 0 0 0 2.08 0v-.54h-.54a.47.47 0 1 1 0-.94h.54v-1.08h-.54a.47.47 0 1 1 0-.94h.54v-1.07h-.54a.47.47 0 1 1 0-.95h.54v-1.07h-.54a.47.47 0 1 1 0-.95h.54v-1.07h-.54a.47.47 0 1 1 0-.95h.54v-1.07h-.54a.47.47 0 1 1 0-.94h.54v-1.07h-.54a.47.47 0 1 1 0-.95h.54v-.54a1.04 1.04 0 0 0-2.08 0z"/></defs><g><g transform="translate(-1089 -806)"><use fill="#922d20" xlink:href="#tuwma"/></g></g></svg>