<svg xmlns="http://www.w3.org/2000/svg" xmlns:xlink="http://www.w3.org/1999/xlink" width="32" height="26" viewBox="0 0 32 26"><defs><path id="g4nka" d="M1118 918.56v7.16a2.54 2.54 0 0 1-2.5 2.56H1105v7.16h-1v-7.16h-1v7.16h-1v-7.16h-10.5a2.54 2.54 0 0 1-2.5-2.56v-7.16a2.54 2.54 0 0 1 2.5-2.56h24c1.38 0 2.5 1.15 2.5 2.56zm-1 0c0-.85-.67-1.54-1.5-1.54h-24c-.83 0-1.5.7-1.5 1.54v7.16c0 .84.67 1.54 1.5 1.54h24c.83 0 1.5-.7 1.5-1.54zm-23 6.14h18.5v1.02H1094zm-2-1.54h23v1.03h-23zm19 12.28a2.53 2.53 0 0 1-2.5 2.56 2.53 2.53 0 0 1-2.5-2.56v-5.63h1v5.63c0 .85.67 1.54 1.5 1.54s1.5-.7 1.5-1.54a.5.5 0 0 1 .5-.51c.28 0 .5.23.5.51zm-11-5.63h1v5.63a2.53 2.53 0 0 1-2.5 2.56 2.53 2.53 0 0 1-2.5-2.56.5.5 0 0 1 .5-.51c.28 0 .5.23.5.51 0 .85.67 1.54 1.5 1.54s1.5-.7 1.5-1.54z"/></defs><g><g transform="translate(-1087 -914)"><use fill="#922d20" xlink:href="#g4nka"/></g></g></svg>