<svg xmlns="http://www.w3.org/2000/svg" xmlns:xlink="http://www.w3.org/1999/xlink" width="34" height="23" viewBox="0 0 34 23"><defs><path id="u4p8a" d="M1119.04 548.6v3.9c0 .66-.53 1.19-1.2 1.19h-.4v3.12c0 .66-.52 1.19-1.19 1.19h-1.12c-.67 0-1.2-.53-1.2-1.2v-3.11h-20.79v3.12c0 .66-.53 1.19-1.2 1.19h-1.12c-.66 0-1.2-.53-1.2-1.2v-3.08h-.39c-.66 0-1.2-.53-1.2-1.2v-3.91c0-2.29 1.43-3.29 2.92-3.45v-5.05c0-2.28 1.6-3.08 3.09-3.08h18.9c1.49 0 3.08.83 3.08 3.08v5.05c1.5.16 2.92 1.16 3.02 3.45zm-26.96-3.47h1.1v-2.86c0-.66.53-1.2 1.19-1.2h7.3c.66 0 1.19.54 1.19 1.2v2.86h1.39v-2.86c0-.66.53-1.2 1.2-1.2h7.29c.66 0 1.2.54 1.2 1.2v2.86h.89v-5.02c0-1.56-1.03-1.89-1.9-1.89h-18.9c-.85 0-1.88.33-1.88 1.9h-.07zm13.36-2.86v2.86h7.3v-2.86zm-11 0v2.86h7.3v-2.86zm-2.52 11.42h-1.13v3.12h1.13zm24.27 0h-1.13v3.12h1.13zm1.55-2.92h-28.54v1.75h28.54zm0-1.2v-.96c0-2-1.42-2.29-2.28-2.29h-23.97c-.83 0-2.3.3-2.3 2.29v.96z"/></defs><g><g transform="translate(-1087 -536)"><use fill="#fff" xlink:href="#u4p8a"/></g></g></svg>