<svg xmlns="http://www.w3.org/2000/svg" xmlns:xlink="http://www.w3.org/1999/xlink" width="27" height="28" viewBox="0 0 27 28"><defs><path id="a0fxa" d="M1388.93 743.07v-25.14h25.14v25.14zm6.6-14.66c-1 0-1.75 1.38-1.75 3.2 0 1.83.75 3.2 1.75 3.2s1.75-1.37 1.75-3.2c0-1.82-.76-3.2-1.75-3.2zm0 5.67c-.48 0-1.02-1.05-1.02-2.47 0-1.41.54-2.47 1.02-2.47s1.02 1.06 1.02 2.47c0 1.42-.54 2.47-1.02 2.47zm7.46-2.9c-.2 0-.36.16-.36.36v.67a.36.36 0 1 0 .72 0v-.67c0-.2-.16-.37-.36-.37zm7.4 0c-.2 0-.36.16-.36.36v.67a.36.36 0 1 0 .73 0v-.67c0-.2-.16-.37-.36-.37zm-2.54.7a.36.36 0 0 0-.52.04.84.84 0 0 1-.64.28.85.85 0 0 1-.64-.28.36.36 0 1 0-.55.48c.3.34.73.53 1.2.53.45 0 .89-.2 1.18-.53a.36.36 0 0 0-.03-.51zm5.6 8.18l-.01-4.45a44.1 44.1 0 0 0-.5-7.2c-.36-1.93-.95-3.24-1.86-4.1a4.46 4.46 0 0 0-1.7-1.02 2.02 2.02 0 0 0-1.63-1.7v-.79c.22.03.45.05.68.05.7 0 1.28-.17 1.81-.53a1.1 1.1 0 0 0-1.23-1.83 1 1 0 0 1-.59.15c-.37 0-.85-.11-1.45-.26-.72-.18-1.54-.38-2.44-.38-1.08 0-1.92.24-2.5.7a1.12 1.12 0 0 0-.17 1.56c.38.46 1.09.54 1.56.16.03-.02.29-.2 1.11-.2.36 0 .74.05 1.1.12v1.24c-.84.16-1.5.85-1.62 1.71a4.5 4.5 0 0 0-2.8 2.58l-.02-.14c-.03-.45-.08-.9-.15-1.34a1.68 1.68 0 0 0-1.66-1.44h-7.7c-.84 0-1.54.6-1.67 1.44-.06.44-.11.89-.15 1.34a24.7 24.7 0 0 0 .85 8.2c.5 1.87 1.05 3.13 1.19 3.45v3.33c0 .44.16.94.44 1.35.34.5.77.77 1.22.77h3.93c.45 0 .89-.28 1.22-.77.28-.4.45-.91.45-1.35v-3.33c.1-.23.42-.98.79-2.1v.33c-.02 1.42-.02 2.97-.02 4.45a2.77 2.77 0 0 0 2.77 2.77h7.99a2.77 2.77 0 0 0 2.77-2.77zm-15.96 2.04h-3.93c-.36 0-.74-.52-.88-1.02h5.7c-.14.5-.53 1.02-.89 1.02zm.94-1.75h-5.8v-2.69h5.8zm.13-3.41h-6.06a25.48 25.48 0 0 1-1.94-10.82h2.04c.2 0 .36-.16.36-.36 0-.2-.17-.37-.36-.37h-1.98l.11-.89a.95.95 0 0 1 .95-.82h7.7c.47 0 .87.35.94.82.05.3.08.6.11.9h-6.38c-.2 0-.36.16-.36.36 0 .2.16.36.36.36h6.44c.32 5.2-1.5 9.8-1.93 10.82zm9.87-16.82c-1.33 0-2.57-.64-3.9-.64-.96 0-1.4.24-1.57.38-.16.13-.4.1-.53-.06a.38.38 0 0 1 .06-.53c.45-.36 1.13-.54 2.04-.54.8 0 1.58.19 2.27.36.64.16 1.17.28 1.62.28.4 0 .72-.1 1-.28a.38.38 0 0 1 .2-.07c.37 0 .52.5.22.7-.41.27-.86.4-1.4.4zm-1.41.55v.88h-.65v-1.04l.65.15zm-2.21 2.42c.19-.48.65-.81 1.2-.81h1.37c.54 0 1 .33 1.2.8a8.05 8.05 0 0 0-1.21-.12h-1.35c-.43.01-.84.06-1.21.13zm-3.56 5.03v-.01c.51-2.4 1.45-3.69 3.15-4.18.86-.26 1.74-.25 2.62-.25 1.27 0 2.61.24 3.56 1.15.73.7 1.23 1.75 1.56 3.3zm11.47 7.86v4.08c0 1.12-.9 2.04-2.03 2.04h-8a2.04 2.04 0 0 1-2.03-2.04v-4.08h8.78c.2 0 .37-.17.37-.36 0-.2-.17-.37-.37-.37h-8.76c.02-1.24.05-2.25.1-3.16.22-1.09.36-2.18.43-3.24h11.07c.25 1.51.38 3.47.43 6.4h-1.81c-.2 0-.37.17-.37.37 0 .2.17.36.37.36z"/><path id="a0fxb" d="M1397.28 731.61c0 1.83-.76 3.2-1.75 3.2-1 0-1.75-1.37-1.75-3.2 0-1.82.75-3.2 1.75-3.2s1.75 1.38 1.75 3.2zm-.73 0c0-1.41-.54-2.47-1.02-2.47s-1.02 1.06-1.02 2.47c0 1.42.54 2.47 1.02 2.47s1.02-1.05 1.02-2.47zm6.8-.07v.67a.36.36 0 1 1-.72 0v-.67a.36.36 0 1 1 .72 0zm7.4 0v.67a.36.36 0 0 1-.72 0v-.67a.36.36 0 1 1 .73 0zm-2.87.86c-.3.34-.73.53-1.19.53-.46 0-.9-.2-1.19-.53a.36.36 0 0 1 .55-.48c.16.18.4.28.64.28.25 0 .49-.1.64-.28a.36.36 0 0 1 .55.48zm5.58 7.66a2.77 2.77 0 0 1-2.77 2.77h-8a2.77 2.77 0 0 1-2.76-2.77l.01-4.45.01-.33a21.34 21.34 0 0 1-.8 2.1v3.33c0 .44-.16.94-.44 1.35-.33.5-.77.77-1.22.77h-3.93c-.45 0-.88-.28-1.22-.77-.28-.4-.44-.91-.44-1.35v-3.33c-.14-.32-.69-1.58-1.2-3.44a24.7 24.7 0 0 1-.84-8.21c.04-.45.09-.9.15-1.34.13-.83.83-1.44 1.67-1.44h7.7c.84 0 1.54.6 1.66 1.44.07.44.12.89.15 1.34l.01.14c.33-.69.73-1.24 1.22-1.68.44-.4.97-.7 1.59-.9.11-.86.78-1.55 1.63-1.7v-1.25a5.59 5.59 0 0 0-1.1-.13c-.83 0-1.1.2-1.12.21-.47.38-1.18.3-1.56-.16-.37-.47-.3-1.18.17-1.56.58-.46 1.42-.7 2.5-.7.9 0 1.72.2 2.44.38.6.15 1.08.26 1.45.26a1 1 0 0 0 .59-.15 1.1 1.1 0 0 1 1.24 1.83c-.54.36-1.13.53-1.82.53-.23 0-.46-.02-.68-.05v.78c.85.16 1.51.85 1.63 1.71.67.23 1.23.56 1.7 1.01.91.87 1.5 2.18 1.86 4.12.3 1.65.46 3.8.5 7.2.02 1.4.02 2.96.02 4.44zm-15.08 1.02h-5.7c.14.5.52 1.02.88 1.02h3.93c.36 0 .75-.52.89-1.02zm.05-3.42h-5.8v2.7h5.8zm2.06-11.54h-6.44a.36.36 0 0 1-.36-.36c0-.2.17-.37.36-.37h6.38l-.1-.89a.95.95 0 0 0-.95-.82h-7.7a.95.95 0 0 0-.95.82c-.04.3-.08.6-.1.9h1.97c.2 0 .36.16.36.36 0 .2-.16.36-.36.36h-2.04c-.32 5.2 1.5 9.8 1.94 10.82h6.06a25.49 25.49 0 0 0 1.93-10.82zm7.94-6c.55 0 1-.13 1.4-.4.31-.2.16-.7-.2-.7a.38.38 0 0 0-.21.07c-.28.19-.6.28-1 .28-.45 0-.98-.12-1.62-.28-.69-.17-1.46-.36-2.27-.36-.9 0-1.6.18-2.04.54a.38.38 0 0 0-.06.53c.13.16.37.19.53.06.18-.14.61-.38 1.57-.38 1.33 0 2.57.64 3.9.64zm-1.41.54l-.65-.15v1.04h.65v-.88zm-2.21 2.43c.37-.07.78-.12 1.21-.13h1.35c.43.01.83.06 1.2.12-.18-.47-.65-.8-1.19-.8H1406c-.54 0-1 .33-1.2.8zm-3.56 5.03h10.89c-.33-1.54-.83-2.6-1.56-3.3-.95-.9-2.29-1.14-3.56-1.14-.88 0-1.76 0-2.62.25-1.7.5-2.64 1.79-3.15 4.18v.01zm11.47 7.86h-1.82a.37.37 0 0 1-.37-.36c0-.2.17-.37.37-.37h1.8c-.04-2.93-.17-4.89-.42-6.4h-11.07a25.34 25.34 0 0 1-.43 3.24c-.05.91-.08 1.92-.1 3.16h8.76c.2 0 .37.17.37.37 0 .2-.17.36-.37.36h-8.77c-.02 1.31-.02 2.73-.01 4.08 0 1.12.91 2.04 2.04 2.04h7.99c1.12 0 2.04-.92 2.04-2.04l-.01-4.08z"/><clipPath id="a0fxc"><use fill="#fff" xlink:href="#a0fxa"/></clipPath></defs><g><g transform="translate(-1388 -716)"><use fill="#fff" xlink:href="#a0fxb"/><use fill="#fff" fill-opacity="0" stroke="#922d20" stroke-miterlimit="50" stroke-width=".14" clip-path="url(&quot;#a0fxc&quot;)" xlink:href="#a0fxb"/></g></g></svg>