<svg xmlns="http://www.w3.org/2000/svg" xmlns:xlink="http://www.w3.org/1999/xlink" width="31" height="29" viewBox="0 0 31 29"><defs><path id="9j4la" d="M1386.97 788.03v-25.06h29.06v25.06zm7.82-20.68a3.2 3.2 0 1 0 .02 6.41 3.2 3.2 0 0 0-.02-6.41zm.02 5.5a2.3 2.3 0 1 1-.02-4.59 2.3 2.3 0 0 1 .02 4.59zm20.62-1.46c0-.25-.2-.46-.46-.46-.32 0-.63-.12-.86-.35a2.12 2.12 0 0 0-2.86 0c-.23.24-.54.37-.86.37a.46.46 0 1 0 0 .92c.54 0 1.05-.2 1.43-.57a1.21 1.21 0 0 1 1.72-.01c.4.37.9.56 1.44.56.25 0 .46-.2.45-.46zm0-2.3c0-.25-.21-.45-.47-.45-.32 0-.63-.12-.86-.35a2.12 2.12 0 0 0-2.86 0c-.23.24-.54.37-.86.37a.46.46 0 1 0 0 .92c.54 0 1.05-.2 1.44-.57a1.21 1.21 0 0 1 1.7-.01h.01c.4.37.9.56 1.44.56.25 0 .46-.21.46-.46zm-.01-2.28c0-.26-.21-.46-.46-.46-.33 0-.64-.12-.87-.35a2.12 2.12 0 0 0-2.86 0c-.23.24-.54.37-.86.37a.46.46 0 1 0 0 .91c.54 0 1.05-.2 1.44-.56a1.21 1.21 0 0 1 1.7-.01h.01c.4.36.9.56 1.44.56.25 0 .46-.21.46-.46zm-6.43-2.27a.46.46 0 0 0-.67-.4l-3.54 1.78-5.33-.42a6.87 6.87 0 1 0-7.08 11.48l1.58 6.97c.05.2.24.36.45.35h1.77c-.2.8-.93 1.37-1.76 1.38h-2.12c-.5.01-.99.15-1.41.4l-1.75 1.06a.46.46 0 1 0 .46.8l.02-.02 1.74-1.05c.29-.17.61-.26.94-.27h2.12c1.34-.01 2.48-.98 2.7-2.3l1.87-.01a.46.46 0 0 0 .45-.56l-.8-3.57h.8c.25 0 .45-.2.45-.46v-1.83c0-.26-.21-.46-.47-.46h-1.4l-.17-.69a6.9 6.9 0 0 0 3.73-5l3.23-.28 3.56 1.76a.46.46 0 0 0 .66-.41l-.03-8.25zm-10.03 13.79v.92h-.55l-.2-.92zm-.55 5.04l-3.65.02-1.38-6.11c1.2.25 2.44.18 3.6-.2zm2.3-12.12l.02.06a5.96 5.96 0 1 1 0-.07zm3.72-.7l-2.76.24v-.26a6.8 6.8 0 0 0-1.32-4.04l4.06.32zm3.67 1.5l-2.75-1.36-.02-4.02 2.75-1.38z"/><path id="9j4lb" d="M1398.01 770.54a3.2 3.2 0 1 1-6.41.03 3.2 3.2 0 0 1 6.41-.03zm-.92 0a2.3 2.3 0 1 0-4.58.03 2.3 2.3 0 0 0 4.58-.02zm18.34.85c0 .25-.2.46-.45.46-.53 0-1.05-.2-1.44-.55v-.01a1.21 1.21 0 0 0-1.72.01c-.38.37-.9.57-1.43.57a.46.46 0 1 1 0-.92c.32 0 .63-.13.86-.36.8-.75 2.05-.75 2.86-.01.23.23.54.36.86.35.26 0 .46.2.46.46zm0-2.3c0 .26-.2.47-.46.47-.53 0-1.05-.2-1.44-.56a1.21 1.21 0 0 0-1.71.01c-.4.37-.9.57-1.44.57a.46.46 0 0 1 0-.92c.32 0 .63-.13.86-.36.8-.75 2.05-.75 2.86-.01.23.23.54.36.86.35.26 0 .46.2.47.46zm-.01-2.28c0 .25-.2.46-.46.46-.53 0-1.05-.2-1.44-.56a1.21 1.21 0 0 0-1.71.01c-.4.36-.9.57-1.43.56a.46.46 0 1 1 0-.91c.31 0 .62-.13.85-.36.8-.75 2.05-.76 2.86-.01.23.23.54.35.87.35.25 0 .45.2.46.46zm-6.43-2.27l.03 8.25c0 .07-.01.14-.05.2a.46.46 0 0 1-.61.21l-3.56-1.76-3.23.28a6.9 6.9 0 0 1-3.73 5l.16.7h1.41c.26-.01.46.2.47.45v1.83c0 .25-.2.46-.45.46h-.8l.8 3.57.01.1c0 .25-.2.45-.46.46h-1.87a2.75 2.75 0 0 1-2.7 2.3l-2.12.01c-.33 0-.65.1-.94.27l-1.74 1.05-.02.01a.46.46 0 0 1-.46-.79l1.75-1.05c.42-.26.91-.4 1.41-.4l2.12-.01c.83 0 1.55-.57 1.76-1.38h-1.77a.46.46 0 0 1-.45-.35l-1.58-6.97a6.86 6.86 0 1 1 7.08-11.48l5.33.42 3.54-1.79a.46.46 0 0 1 .67.41zm-10.78 13.8l.2.9h.55v-.91zm-1.23-1.26c-1.16.38-2.4.45-3.6.2l1.38 6.1h3.65zm3.74-5.83a5.92 5.92 0 0 0-5.94-6.65 5.96 5.96 0 1 0 5.94 6.65zm3.7-4.44l-4.07-.32a6.8 6.8 0 0 1 1.32 4.3l2.76-.24zm3.66-1.52l-2.75 1.38.02 4.02 2.75 1.36z"/><clipPath id="9j4lc"><use fill="#fff" xlink:href="#9j4la"/></clipPath></defs><g><g transform="translate(-1386 -761)"><use fill="#fff" xlink:href="#9j4lb"/><use fill="#fff" fill-opacity="0" stroke="#922d20" stroke-miterlimit="50" stroke-width=".06" clip-path="url(&quot;#9j4lc&quot;)" xlink:href="#9j4lb"/></g></g></svg>