<svg xmlns="http://www.w3.org/2000/svg" xmlns:xlink="http://www.w3.org/1999/xlink" width="32" height="29" viewBox="0 0 32 29"><defs><path id="2gtfa" d="M1400.67 877.05l-.3.09.55 4.7v.03c.15 3.26-1.85 5.83-4.76 6.1l-.53.03a5.07 5.07 0 0 1-3.4-1.28 6.12 6.12 0 0 1-1.92-3.71l-.3-1.58a.56.56 0 1 1 1.1-.21l.3 1.6v.02c.38 2.6 2.28 4.25 4.64 4.03 2.33-.22 3.88-2.25 3.76-4.93l-.6-5.27a5.67 5.67 0 0 0-4.24-1.38 5.83 5.83 0 0 0-4.33 2.26 1.12 1.12 0 0 1-1.19.42 1.13 1.13 0 0 1-.84-.94l-1.04-7.45a6.63 6.63 0 0 1 1.42-5.01 6.63 6.63 0 0 1 4.58-2.47 6.63 6.63 0 0 1 4.96 1.56 6.63 6.63 0 0 1 2.34 4.65l.45 7.65c.02.46-.23.89-.65 1.09zm-11.41-3.42a9.15 9.15 0 0 1 6.1-2.3c1.46 0 3.15.49 4.65 1.34l-.25-4.3a5.53 5.53 0 0 0-1.95-3.86 5.53 5.53 0 0 0-4.14-1.3 5.53 5.53 0 0 0-3.81 2.06 5.53 5.53 0 0 0-1.2 4.16zm10.95 2.4l-.12-2.01a8.99 8.99 0 0 0-4.73-1.58c-2.26 0-4.36.9-5.91 2.55l.26 1.88v.02h.04a6.9 6.9 0 0 1 5.12-2.7 6.8 6.8 0 0 1 5.31 1.86l.03-.01v-.02zm-9.84 3.84h-.02a.56.56 0 0 1-.29-1.07h.02a.55.55 0 0 1 .29 1.07zm25.48-10.3v.01l-1.04 7.45a1.13 1.13 0 0 1-2.03.52 5.82 5.82 0 0 0-4.33-2.26 5.67 5.67 0 0 0-4.24 1.38l-.6 5.27c-.12 2.68 1.43 4.7 3.76 4.93 2.36.22 4.27-1.43 4.64-4.03v-.03l.3-1.59a.56.56 0 0 1 1.1.2l-.3 1.59a6.12 6.12 0 0 1-1.91 3.7 5.07 5.07 0 0 1-3.94 1.26c-2.9-.27-4.91-2.84-4.76-6.1v-.03l.54-4.7a1.13 1.13 0 0 1-.94-1.18l.45-7.65a6.63 6.63 0 0 1 2.34-4.65 6.63 6.63 0 0 1 4.96-1.56 6.63 6.63 0 0 1 4.58 2.47 6.63 6.63 0 0 1 1.42 5zm-1.86 5.3a8.06 8.06 0 0 0-5.8-2.43c-1.6 0-3.5.58-4.85 1.48l-.13 2.1v.02h.04a6.82 6.82 0 0 1 5.3-1.85 6.9 6.9 0 0 1 5.15 2.7l.01-.02zm-.42-9.6a5.53 5.53 0 0 0-3.82-2.06 5.53 5.53 0 0 0-4.14 1.3 5.53 5.53 0 0 0-1.95 3.87l-.25 4.2c1.45-.78 3.2-1.25 4.78-1.25 2.23 0 4.32.77 5.99 2.2l.57-4.1a5.53 5.53 0 0 0-1.18-4.16zm.18 14.2a.56.56 0 0 1-.68.4h-.02a.56.56 0 1 1 .29-1.08h.02c.3.09.47.4.4.69z"/></defs><g><g transform="translate(-1386 -860)"><use fill="#fff" xlink:href="#2gtfa"/></g></g></svg>