<svg xmlns="http://www.w3.org/2000/svg" xmlns:xlink="http://www.w3.org/1999/xlink" width="30" height="25" viewBox="0 0 30 25"><defs><path id="sl5ma" d="M1408.95 928.42l-2.08 2.1a1.09 1.09 0 0 1-1.49.07 5.22 5.22 0 0 0-6.76 0c-.44.38-1.08.35-1.49-.06l-2.08-2.11a1.12 1.12 0 0 1 .04-1.62 10.31 10.31 0 0 1 13.82 0 1.11 1.11 0 0 1 .04 1.62zm-.77-.79a9.22 9.22 0 0 0-12.36 0l2.09 2.11a6.31 6.31 0 0 1 8.18 0zm-3.87 7.03A2.34 2.34 0 0 1 1402 937a2.3 2.3 0 0 1-1.64-.68c-.9-.92-.9-2.4 0-3.31a2.28 2.28 0 0 1 3.27 0c.44.44.68 1.03.68 1.65zm-1.1 0a1.23 1.23 0 0 0-1.21-1.22c-.32 0-.63.12-.86.36a1.24 1.24 0 0 0 0 1.73 1.2 1.2 0 0 0 1.72 0c.23-.23.35-.54.35-.87zm11.79-12.84c0 .3-.1.6-.32.8l-2.09 2.11a1.09 1.09 0 0 1-1.52.03 13.21 13.21 0 0 0-18.14 0c-.44.41-1.1.4-1.53-.03l-2.08-2.1a1.11 1.11 0 0 1 .03-1.6 18.36 18.36 0 0 1 25.3 0c.22.2.34.49.35.8zm-1.1.02a17.27 17.27 0 0 0-23.8 0l2.08 2.1a14.3 14.3 0 0 1 19.64.01z"/></defs><g><g transform="translate(-1387 -913)"><use fill="#fff" xlink:href="#sl5ma"/></g></g></svg>