<svg xmlns="http://www.w3.org/2000/svg" xmlns:xlink="http://www.w3.org/1999/xlink" width="33" height="30" viewBox="0 0 33 30"><defs><path id="gt0za" d="M1088.85 606.15v-27.3h30.3v27.3zm17.52-21.18h-5.33a.36.36 0 0 0 0 .72h5.33a.36.36 0 0 0 0-.72zm11.59 8.27h-5.44l-.68-3.74a1.5 1.5 0 0 0-1.48-1.23h-.93l-.42-7.1a2.3 2.3 0 0 0-2.3-2.17h-6.08a2.3 2.3 0 0 0-2.3 2.16l-.42 7.1h-.93a1.5 1.5 0 0 0-1.48 1.24l-.67 3.74h-5.44a.36.36 0 0 0 0 .72h1.52v2.47c0 .2.16.35.36.35h1.57v8.59c0 .2.16.36.36.36h1.91a.36.36 0 0 0 0-.72h-1.55v-8.23h20.23v8.23h-1.55a.36.36 0 0 0 0 .72h1.9c.2 0 .37-.16.37-.36v-8.59h1.57c.2 0 .36-.16.36-.35v-2.47h1.52a.36.36 0 0 0 0-.72zm-7.6-4.25c.38 0 .71.27.78.65l.65 3.6h-2.06l-.25-4.25zm-11.3-7.78c.04-.84.74-1.5 1.57-1.5h6.09c.83 0 1.53.66 1.57 1.5l.72 12.03h-10.67zm-2.85 8.42a.78.78 0 0 1 .77-.64h.89l-.25 4.25h-2.06zm-4.58 6.44v-2.1h24.08v2.1zm18.27 2.99h-12.39a.36.36 0 0 0 0 .72h5.8v2.4l-2.9 2.9a.37.37 0 0 0 0 .51c.08.07.17.1.26.1s.19-.03.25-.1l2.4-2.4v2.28c0 .2.16.36.35.36.2 0 .36-.16.36-.36v-2.26l2.37 2.37c.07.08.16.11.25.11.1 0 .19-.03.26-.1a.37.37 0 0 0 0-.51l-2.88-2.88v-2.42h5.87a.36.36 0 0 0 0-.72z"/><path id="gt0zb" d="M1106.73 585.33c0 .2-.17.36-.36.36h-5.33a.36.36 0 0 1 0-.72h5.33c.2 0 .36.16.36.36zm11.59 8.27c0 .2-.16.36-.36.36h-1.52v2.47c0 .2-.16.35-.36.35h-1.57v8.59c0 .2-.17.36-.36.36h-1.91a.36.36 0 0 1 0-.72h1.55v-8.23h-20.23v8.23h1.55a.36.36 0 0 1 0 .72h-1.9a.36.36 0 0 1-.37-.36v-8.59h-1.57a.36.36 0 0 1-.36-.35v-2.47h-1.52a.36.36 0 0 1 0-.72h5.44l.67-3.74a1.5 1.5 0 0 1 1.48-1.23h.93l.43-7.1a2.3 2.3 0 0 1 2.29-2.17h6.08a2.3 2.3 0 0 1 2.3 2.16l.42 7.1h.93c.73 0 1.35.53 1.48 1.24l.68 3.74h5.44c.2 0 .36.16.36.36zm-8.84-4.6l.25 4.25h2.06l-.65-3.61a.78.78 0 0 0-.78-.65zm-11.14 4.24H1109l-.72-12.03a1.58 1.58 0 0 0-1.57-1.5h-6.1c-.82 0-1.52.66-1.57 1.5zm-2.78 0h2.06l.25-4.25h-.89c-.38 0-.7.27-.77.64zm20.15 2.83v-2.1h-24.08v2.1zm-5.45 3.35c0 .2-.16.36-.36.36h-5.87v2.42l2.88 2.88c.13.14.13.37 0 .5a.34.34 0 0 1-.26.11.35.35 0 0 1-.25-.1l-2.37-2.38v2.26c0 .2-.16.36-.36.36a.36.36 0 0 1-.36-.36v-2.28l-2.39 2.4a.34.34 0 0 1-.5 0 .37.37 0 0 1 0-.5l2.9-2.91v-2.4h-5.8a.36.36 0 0 1 0-.72h12.38c.2 0 .36.16.36.36z"/><clipPath id="gt0zc"><use fill="#fff" xlink:href="#gt0za"/></clipPath></defs><g><g transform="translate(-1087 -577)"><use fill="#fff" xlink:href="#gt0zb"/><use fill="#fff" fill-opacity="0" stroke="#922d20" stroke-miterlimit="50" stroke-width=".3" clip-path="url(&quot;#gt0zc&quot;)" xlink:href="#gt0zb"/></g></g></svg>