<svg xmlns="http://www.w3.org/2000/svg" xmlns:xlink="http://www.w3.org/1999/xlink" width="19" height="31" viewBox="0 0 19 31"><defs><path id="2sqoa" d="M1111.6 671.79v23.62c0 1-.82 1.82-1.83 1.82h-12.33c-1.01.01-1.83-.8-1.83-1.82v-23.62c0-1 .82-1.83 1.83-1.83h12.33c1.01 0 1.84.82 1.84 1.83zm-1.18 23.62v-14.18h-13.63v14.18c0 .36.3.64.65.64h12.33c.36 0 .65-.28.65-.64zm0-23.62c0-.36-.3-.64-.65-.64h-12.33a.64.64 0 0 0-.65.64v8.25h13.63zm-1.18 3.51v2.37a.6.6 0 0 1-.6.6.6.6 0 0 1-.59-.6v-2.37c0-.33.27-.6.6-.6.32 0 .59.27.59.6zm-1.19 10.67v-2.96a.6.6 0 1 1 1.18 0v2.96a.6.6 0 0 1-.59.6.6.6 0 0 1-.59-.6z"/></defs><g><g transform="translate(-1094 -668)"><use fill="#fff" xlink:href="#2sqoa"/></g></g></svg>