<svg xmlns="http://www.w3.org/2000/svg" xmlns:xlink="http://www.w3.org/1999/xlink" width="28" height="28" viewBox="0 0 28 28"><defs><path id="3ax6a" d="M1109.76 728.87a.47.47 0 1 1-.66-.66.47.47 0 0 1 .66.66zm5.83-5.83l-.85.85a1.4 1.4 0 0 1-1.31.38l-.68 3.85a4.2 4.2 0 0 1-1.17 2.25l-.83.82c-.52.53-1.25.77-1.99.66a2.34 2.34 0 0 1-2.65 2.66 2.34 2.34 0 0 1-2.66 2.65c.1.7-.12 1.45-.66 1.99l-1.89 1.89a3.29 3.29 0 0 1-4.64 0l-3.32-3.32a3.29 3.29 0 0 1 0-4.64l1.89-1.89a2.35 2.35 0 0 1 1.99-.66 2.34 2.34 0 0 1 2.65-2.66 2.33 2.33 0 0 1 2.66-2.65c-.1-.7.12-1.45.66-1.99l.82-.82a4.2 4.2 0 0 1 2.26-1.17l3.84-.68c-.1-.47.03-.96.38-1.3l.85-.86a1.4 1.4 0 0 1 2 0l2.65 2.65a1.4 1.4 0 0 1 0 2zm-13.46 13.46l-4.65-4.65a1.41 1.41 0 0 0-1.99 0l-1.89 1.9c-.91.9-.91 2.4 0 3.3l3.32 3.33c.92.91 2.4.91 3.32 0l1.89-1.9a1.4 1.4 0 0 0 0-1.98zm2.65-2.66l-4.64-4.64a1.4 1.4 0 0 0-2 1.99l4.65 4.64a1.4 1.4 0 0 0 2-1.99zm2.66-2.65l-4.65-4.64a1.4 1.4 0 1 0-1.99 1.99l4.65 4.64a1.4 1.4 0 1 0 1.99-1.99zm5.13-7.47l-2.3-2.3-4.24.74c-.67.12-1.27.43-1.75.91l-.82.82a1.4 1.4 0 0 0 0 2l4.64 4.64c.55.55 1.44.55 2 0l.81-.83c.48-.47.8-1.08.92-1.75zm2.35-2l-2.65-2.66a.47.47 0 0 0-.66 0l-.86.85a.47.47 0 0 0 0 .67l2.66 2.65c.18.18.48.18.66 0l.85-.85a.47.47 0 0 0 0-.66zm-1.74 18.12a2.82 2.82 0 0 1-2.5-4.09l2.09-4.1a.47.47 0 0 1 .83 0l2.1 4.1c.94 1.86-.41 4.1-2.52 4.1zm1.68-3.66l-1.68-3.28-1.67 3.28a1.88 1.88 0 1 0 3.35 0zm-6.43-8.64a.47.47 0 0 1-.66 0l-2.27-2.26a.47.47 0 1 1 .67-.67l2.26 2.27c.19.18.19.48 0 .66z"/></defs><g><g transform="translate(-1090 -716)"><use fill="#fff" xlink:href="#3ax6a"/></g></g></svg>