<svg xmlns="http://www.w3.org/2000/svg" xmlns:xlink="http://www.w3.org/1999/xlink" width="27" height="29" viewBox="0 0 27 29"><defs><path id="vehta" d="M1116 764.44v22.45c0 .24-.2.44-.44.44h-1.76v1.23c0 .25-.2.44-.44.44h-4.59a.44.44 0 0 1-.44-.44v-1.23h-7.82v1.23c0 .25-.2.44-.44.44h-4.59a.44.44 0 0 1-.44-.44v-1.23h-1.76a.44.44 0 0 1-.43-.44v-4.14h-.41a.44.44 0 0 1-.44-.44v-4.43c0-.24.2-.44.44-.44h.4v-3.55h-.4a.44.44 0 0 1-.44-.44v-4.43c0-.25.2-.44.44-.44h.4v-4.14c0-.25.2-.44.44-.44h3.71c.25 0 .44.2.44.44s-.2.44-.44.44h-3.27v3.7h1.08v-2.17c0-.25.2-.44.44-.44h18.37c.24 0 .43.2.43.44v2.82c0 .24-.19.44-.43.44a.44.44 0 0 1-.44-.44v-2.38h-17.5v1.73h.38c.24 0 .44.2.44.44v4.43c0 .24-.2.44-.44.44h-.38v3.55h.38c.24 0 .44.2.44.44v4.43c0 .24-.2.44-.44.44h-.38v1.73h2.09c.24 0 .43.2.43.44s-.2.44-.43.44h-2.52a.44.44 0 0 1-.44-.44v-2.17h-1.08v3.7h21.4v-21.57h-16.6a.44.44 0 0 1-.44-.44c0-.25.2-.44.44-.44h17.04c.24 0 .44.2.44.44zm-23.13 8.57h2.74v-3.55h-2.74zm.85.88v3.55h1.08v-3.55zm-.85 7.98h2.74v-3.55h-2.74zm6.77 6.25v-.8h-3.72v.8zm13.29-.8h-3.72v.8h3.72zm1.11-16.56v14.16c0 .24-.19.44-.43.44h-14.33a.44.44 0 0 1-.44-.44c0-.24.2-.44.44-.44h13.9v-13.72c0-.24.19-.44.43-.44s.43.2.43.44zm-4.64 4.9a4.81 4.81 0 0 1-4.79 4.82 4.81 4.81 0 0 1-4.79-4.82 4.81 4.81 0 0 1 4.79-4.83 4.81 4.81 0 0 1 4.79 4.83zm-1.73-2.46l-1.16 1.17c.17.25.3.54.35.85h1.64a3.94 3.94 0 0 0-.83-2.02zm-2.62.19c.3.06.6.18.84.35l1.16-1.16a3.88 3.88 0 0 0-2-.84zm-2.88-.81l1.16 1.16c.25-.17.54-.29.84-.35v-1.65c-.75.09-1.44.39-2 .84zm-1.45 2.64h1.64c.06-.31.18-.6.35-.85l-1.16-1.17a3.94 3.94 0 0 0-.83 2.02zm.83 2.9l1.16-1.17c-.17-.25-.3-.54-.35-.85h-1.64c.09.76.38 1.45.83 2.02zm2.62-.2c-.3-.05-.6-.17-.84-.35l-1.16 1.17c.56.45 1.25.75 2 .84zm.44-.83c.78 0 1.42-.64 1.42-1.43 0-.79-.64-1.43-1.42-1.43-.78 0-1.42.64-1.42 1.43 0 .79.64 1.43 1.42 1.43zm2.44 1.65l-1.16-1.17c-.25.18-.53.3-.84.36v1.65a3.88 3.88 0 0 0 2-.84zm1.45-2.64h-1.64c-.06.31-.18.6-.35.85l1.16 1.17c.45-.57.74-1.26.83-2.02z"/></defs><g><g transform="translate(-1090 -762)"><use fill="#fff" xlink:href="#vehta"/></g></g></svg>