<svg xmlns="http://www.w3.org/2000/svg" xmlns:xlink="http://www.w3.org/1999/xlink" width="33" height="31" viewBox="0 0 33 31"><defs><path id="61yta" d="M1102.05 865.6c.15-.28.27-.5.27-1s-.12-.72-.27-1a2.74 2.74 0 0 1-.37-1.44c0-.73.2-1.11.37-1.45.15-.28.27-.5.27-1a.48.48 0 1 1 .95 0c0 .73-.2 1.11-.37 1.45-.15.28-.26.5-.26 1s.11.71.26 1c.18.33.37.71.37 1.44s-.2 1.1-.37 1.44c-.15.29-.26.51-.26 1a.48.48 0 0 1-.96 0c0-.72.2-1.1.37-1.44zm3.83 0c.14-.28.26-.5.26-1s-.12-.72-.26-1c-.18-.34-.38-.71-.38-1.44s.2-1.11.38-1.45c.14-.28.26-.5.26-1a.48.48 0 0 1 .96 0c0 .73-.2 1.11-.38 1.45-.14.28-.26.5-.26 1s.12.71.26 1c.18.33.38.71.38 1.44s-.2 1.1-.38 1.44c-.14.29-.26.51-.26 1a.48.48 0 0 1-.96 0c0-.72.2-1.1.38-1.44zm12.68 19.7c0 .25-.21.47-.48.47h-.27l-.28.96c-.2.71-.94 1.27-1.68 1.27h-22.93c-.74 0-1.47-.56-1.67-1.27l-.28-.96h-.28a.48.48 0 0 1 0-.96h27.4c.26 0 .47.22.47.48zm-1.75.47h-24.85l.2.7c.09.3.45.57.76.57h22.93c.32 0 .68-.27.76-.57zm-26.28-13.6c0-.52.1-1.01.28-1.48.07-.18.25-.3.45-.3h3.73c.27 0 .48.21.48.48v3.1c0 .56.05 1.1.15 1.65a.48.48 0 0 1-.47.56h-.6a4.02 4.02 0 0 1-4.02-4.02zm.96 0a3.07 3.07 0 0 0 3.06 3.06h.04a9.98 9.98 0 0 1-.08-1.25v-2.63h-2.91c-.07.26-.11.53-.11.81zm-2.87 0c0-1.27.4-2.48 1.14-3.5.09-.12.23-.2.38-.2h23.64c.27 0 .48.22.48.49v5.02a9.89 9.89 0 0 1-18.85 4.12h-.86a5.94 5.94 0 0 1-5.93-5.94zm.96 0a4.98 4.98 0 0 0 4.97 4.97h1.17c.2 0 .37.12.44.3a8.93 8.93 0 0 0 17.14-3.46v-4.55h-1.59v2.08a.48.48 0 1 1-.95 0v-2.08h-20.37a4.93 4.93 0 0 0-.81 2.73zm14.33 8.66c0-.27.21-.48.48-.48a6.38 6.38 0 0 0 6.37-6.37v-.56a.48.48 0 1 1 .95 0v.56a7.34 7.34 0 0 1-7.32 7.33.48.48 0 0 1-.48-.48z"/></defs><g><g transform="translate(-1087 -858)"><use fill="#fff" xlink:href="#61yta"/></g></g></svg>